<?xml version="1.0" encoding="utf-8"?>
<!-- Generator: Adobe Illustrator 26.1.0, SVG Export Plug-In . SVG Version: 6.00 Build 0)  -->
<svg version="1.1" id="Capa_1" xmlns="http://www.w3.org/2000/svg" xmlns:xlink="http://www.w3.org/1999/xlink" x="0px" y="0px"
	 viewBox="0 0 1280 657.7" style="enable-background:new 0 0 1280 657.7;" xml:space="preserve">
<style type="text/css">
	.st0{opacity:0.52;fill:#9FA0A0;}
	.st1{fill:#FFF9E9;}
	.st2{fill:#F2ECDF;}
	.st3{fill:#DDD8CE;}
	.st4{fill:#BCB8B1;}
	.st5{fill:#F2E2D3;}
	.st6{fill:#BF946D;}
	.st7{fill:#EDB68A;}
	.st8{fill:#231F20;}
	.st9{opacity:0.29;fill:#FFF9E9;}
	.st10{fill:#FFFFFF;}
</style>
<g>
	<path class="st0" d="M1270.79,524.05c0,13.51-281.87,24.47-629.58,24.47c-347.71,0-629.58-10.95-629.58-24.47
		c0-13.51,281.87-24.47,629.58-24.47C988.91,499.58,1270.79,510.54,1270.79,524.05z"/>
	<path class="st1" d="M1020.36,461.18c21.69,9.43,40.95,27.21,46.57,50.18c6.42,26.2-6.15,54.2-25.54,72.96
		c-19.39,18.76-44.71,29.95-69.72,40.07c-14.32,5.79-30.43,11.38-44.8,5.72c-1.13-5.9,6.48-9.14,12.32-10.53
		c22.32-5.31,43.15-16.75,59.61-32.74c8.48-8.24,15.96-17.96,19.2-29.33c3.23-11.37,1.59-24.6-6.35-33.36
		c-9.97-11-26.47-12.39-41.3-13.03c-20.22-0.88-40.45-1.76-60.67-2.64c-9.86-0.43-19.95-0.91-29.11-4.58
		c-9.16-3.67-17.4-11.21-19.13-20.93c-2.24-12.51,6.64-24.41,16.77-32.08c19.42-14.69,47.97-21.84,71.06-12.38
		C972.49,448.01,997.42,451.21,1020.36,461.18z"/>
	<path class="st2" d="M994.3,461.78c1.56-2.69,3.39-5.32,5.94-7.11c-16.54-8.95-36.23-11.91-54.66-8.22
		c-18.44,3.69-35.47,14-47.29,28.62c-4.95,6.13-9.17,14.06-6.93,21.62c1.81,6.09,7.53,10.36,13.61,12.21
		c6.07,1.85,12.55,1.69,18.9,1.61c23.4-0.28,46.48,2.52,69.74,3.2c-7.33-4.29-7.47-14.62-7.36-22.41
		C986.37,481,989.12,470.71,994.3,461.78z"/>
	<g>
		<path class="st3" d="M572.25,62.64c6.33,3,12.05,7.94,14.45,14.52c2.4,6.58,0.78,14.85-4.89,18.96c4.36,1.05,4.27,7.32,2.78,11.55
			c-5.84,16.61-17.65,31.04-32.78,40.06c-5.77,3.44-12.11,6.14-18.8,6.85c-18.8,1.99-36.96-13.84-39.68-32.55
			c-2.99-20.51,9.71-37.02,26.09-47.26C536,64.4,552.03,53.07,572.25,62.64z"/>
		<path class="st4" d="M551.64,96.78c9.23-8.6,23.31-11.92,35.26-7.86c0.15,0.05-2.23,4.84-2.58,5.31c-1.25,1.7-1.77,2.13-3.68,1.69
			c-3.27-0.76-6.44-1.65-9.8-2.03C564.33,93.18,557.55,93.79,551.64,96.78z"/>
	</g>
	<path class="st3" d="M466.45,230.69c0.18-28.4,1.66-57.07,9.13-84.47c5.75-21.08,23.19-55.26,32.32-62.54
		c14.6-11.62,60.85,48.82,51.84,53.52c-21.43,11.16-17.13,30.5-16.18,46.31c0.95,15.81,11.03,30.47,19.66,43.76
		c8.63,13.28,18.64,25.73,25.76,39.88c4.92,9.77,8.16,22.27,1.68,31.08c-3.13,4.26-8.01,6.82-12.82,9.01
		c-16.11,7.32-33.42,11.99-51.03,13.75c-17.97,1.81-46.37,0.23-51.52-21.17C469.9,277.46,466.3,253.76,466.45,230.69z"/>
	<path class="st3" d="M850.47,88.94c3.65-6.94,8.08-13.68,14.33-18.42c6.25-4.74,14.61-7.22,22.12-4.95
		c12.15,3.66,17.56-3.9,21.47,8.17c8.09,24.97,16.28,71.22,24.37,96.19c5.17,15.95,10.36,32.04,12.09,48.72
		c2.78,26.8-3.63,53.99-15.03,78.41c-8.43,18.06-21.38,36.19-40.73,41.02c-10.39,2.59-21.34,0.97-31.84-1.12
		c-29.92-5.95-60.25-16.26-81.91-37.75c-10.76-10.67-19.34-25.21-17.42-40.24c1.41-11.02,8.22-20.54,15.41-29.01
		c15.6-18.35,37.41-31.6,46.32-54.7C830.6,146.87,836.26,115.97,850.47,88.94z"/>
	<path class="st1" d="M427.01,531.64c39.5,2.92,79.18,1.49,118.77,0.06c93.38-3.37,186.75-6.74,280.13-10.11
		c24.34-0.88,48.96-1.8,72.38-8.49c23.42-6.69,45.89-19.82,58.97-40.37c9.7-15.25,13.61-33.37,16.97-51.13
		c8.9-47.03,15.21-94.54,18.88-142.27c1.74-22.52-0.42-31.38-13.12-50.06c-14.13-20.79-37.91-44.14-62.62-48.79
		c-34.46-6.49-105.42-22.02-199.36-5.27c-47.56,8.48-116.52,31.17-157,57.53c-41.8,27.22-81.4,49.47-107.81,83.88
		c-30.37,39.58-57.32,83.34-69.39,131.74c-5.31,21.29-4.34,48.08,14.19,59.83c9.08,5.76,20.37,6.44,31.11,6.95L427.01,531.64z"/>
	<path class="st3" d="M524.1,516.27c38.08-21.5,57-67.19,59.15-110.87c1.02-20.63-1.17-41.73-9.23-60.75
		c-10.65-25.15-31.68-45.72-57.05-55.81c2.86,10.14,6.41,20.17,7.58,30.64c3.58,32.11-16.01,62.85-40.78,83.59
		c-24.77,20.74-54.73,34.13-81.96,51.52c-10.6,6.77-21.08,14.44-27.72,25.12c-21.27,34.23,17.66,59.93,49.17,56.02
		C456.67,531.58,493.94,533.29,524.1,516.27z"/>
	<g>
		<path class="st1" d="M720.56,44.94c6.33,3,12.05,7.94,14.45,14.52c2.4,6.58,0.78,14.85-4.89,18.96c4.36,1.05,4.27,7.32,2.78,11.55
			c-5.84,16.61-17.65,31.04-32.78,40.06c-5.77,3.44-12.11,6.14-18.8,6.84c-18.8,1.99-36.96-13.84-39.68-32.55
			c-2.99-20.51,9.71-37.02,26.09-47.26C684.31,46.7,700.34,35.37,720.56,44.94z"/>
		<path class="st5" d="M699.95,79.08c9.23-8.6,23.32-11.92,35.26-7.86c0.15,0.05-2.23,4.85-2.58,5.32c-1.26,1.7-1.77,2.13-3.68,1.69
			c-3.27-0.76-6.44-1.65-9.8-2.03C712.64,75.48,705.86,76.09,699.95,79.08z"/>
	</g>
	<g>
		<path class="st3" d="M818.16,33.27c3.08-6.21,8.07-11.77,14.62-14.03c6.55-2.26,14.7-0.51,18.66,5.18
			c1.12-4.3,7.32-4.09,11.48-2.54c16.32,6.08,30.39,18.02,39.03,33.14c3.3,5.77,5.85,12.09,6.43,18.72
			c1.63,18.63-14.36,36.31-32.91,38.66c-20.34,2.58-36.45-10.27-46.28-26.66C819.25,69.16,808.34,53.1,818.16,33.27z"/>
		<path class="st4" d="M851.57,54.27c-8.34-9.28-11.37-23.28-7.14-35.02c0.05-0.15,4.75,2.3,5.21,2.65c1.66,1.27,2.08,1.79,1.6,3.67
			c-0.81,3.22-1.75,6.34-2.18,9.65C848.23,41.65,848.71,48.37,851.57,54.27z"/>
	</g>
	<path class="st6" d="M165.74,237.35c2.49-13.07,7.93-26.6,19.16-33.74c13.63-8.66,31.87-5.61,46.52-12.41
		c12.85,36.45,37.59,67.3,62.25,97.05c7.06,8.51,14.45,17.7,15.6,28.7c1.47,14.08-8.24,27.57-20.74,34.21
		c-12.5,6.64-27.22,7.61-41.36,6.99c-14.21-0.62-28.64-2.81-41.28-9.32c-18.92-9.74-27.59-29.6-34.69-48.64
		C163.76,280.25,161.76,258.27,165.74,237.35z"/>
	<path class="st1" d="M379.96,244.5c-26.87,5.52-52.42,15.76-77.29,26.89c-24.45,10.94-48.43,22.81-71.87,35.55
		c-12,6.52-24,13.38-33.77,22.58c-20.23,19.05-30.67,47.23-26.66,73.43c5.38,35.18,4.64,108.62,133.73,129.23
		c62.42,9.96,131.46,13.16,182.86-22.28c44.4-30.62,68.39-83.23,66.95-134.12c-0.79-27.75-8.68-55.44-24.55-78.74
		c-15.86-23.3-39.9-42.01-68.17-50.69C435.29,238.39,406.83,238.99,379.96,244.5z"/>
	<path class="st6" d="M224.12,413.36c-5.56,6.34-9.12,14.25-11.3,22.4c-4.57,17-3.33,35.13,1.59,51.91
		c1.3,4.45,3.52,10.97,4.59,15.3c19.1,13.68,45.62,24.25,85.32,30.58c40.28,6.43,83.1,8.66,122.37,0.9
		c-2.39-7.63-6.29-15.06-10.27-21.98c-15.93-27.69-35.63-55.38-64.81-68.37c-7.1-3.16-14.61-5.37-21.52-8.92
		c-14.96-7.69-26.23-21.18-40.91-29.4C268.56,394.23,239.69,395.6,224.12,413.36z"/>
	<path class="st7" d="M256.47,240.54c7.64-0.58,15.56-0.8,22.58-3.88c6.68-2.93,9.45-11.57,8.52-16.39
		c-3.51-18.1-15.12-33.11-31.94-40.65c-8.6-3.86-18.41-4.14-27.76-2.92c-12.96,1.69-25.55,6.18-36.66,13.07
		c-10.19,6.33-19.35,14.97-24.02,26.02c-3.02,7.14-6.98,27.23-3.14,34.4c0.42,0.79,3.8-17.33,28.3-19.09
		C220.94,229.06,234.04,242.25,256.47,240.54z"/>
	<path class="st3" d="M513.4,389.72c3.72,3.16,6.99,7,8.84,11.52c2.66,6.5,2.21,13.81,1.71,20.82c2.31-7.77,3.47-16.04,1.95-24.01
		c-1.52-7.96-6.26-15.14-12.95-19.72c-8.29-5.68-20.32-8.89-32.04-9.22c-3.4-0.09-6.05,2.63-9.22,3.88
		c-1.63,0.64-3.23,1.76-3.76,3.44c-1.83,5.76,5.88,3.26,8.34,2.89c4.43-0.67,8.96-0.68,13.41-0.06
		C498.34,380.45,506.72,384.04,513.4,389.72z"/>
	<path class="st3" d="M508.93,350.61c2.73-4.05,4.83-8.62,5.39-13.48c0.8-6.98-1.61-13.89-3.99-20.5
		c4.32,6.86,7.68,14.51,8.37,22.58c0.69,8.08-1.94,16.27-7.13,22.49c-6.44,7.71-17.16,14.06-28.35,17.54
		c-3.25,1.01-6.54-0.9-9.93-1.24c-1.75-0.18-3.58-0.82-4.55-2.29c-3.32-5.05,4.78-4.73,7.24-5.04c4.45-0.55,8.81-1.77,12.92-3.57
		C496.94,363.61,504.03,357.89,508.93,350.61z"/>
	<path class="st8" d="M420.58,446.67c7.94,13.66,18.42,18.71,28.77,11.36c8.21-5.83,8.4-26.84,11.87-36.3
		c4-10.88,12.67-19.37,18.06-29.63c5.39-10.27,6.37-24.89-3-31.73c-2.69-1.96-5.92-3.02-8.8-4.69
		c-9.98-5.76-14.35-17.55-19.88-27.66c-5.53-10.11-15.35-20.26-26.68-18.16c-11.9,2.21-17.2,16.27-18.42,28.31
		C399.51,367.6,412.05,431.97,420.58,446.67z"/>
	<path class="st9" d="M444.04,445.2c0.99-2.6,0.32-5.6-1.04-8.03c-1.36-2.43-3.34-4.44-5.19-6.53
		c-8.16-9.22-13.97-20.48-16.76-32.47c-0.49-2.09-0.9-4.26-2.06-6.08c-1.16-1.81-3.28-3.2-5.39-2.79
		c-3.98,0.77,7.81,38.36,9.28,41.76C424.91,435.74,437.98,461.18,444.04,445.2z"/>
	<path class="st10" d="M299.54,440.9c21.05,3.1,36.23,18.37,33.91,34.11c-2.32,15.74-21.26,25.98-42.3,22.88
		c-21.05-3.1-36.23-18.37-33.91-34.11C259.55,448.05,278.49,437.8,299.54,440.9z"/>
	<path class="st8" d="M279.32,459.81c8.48,1.25,14.33,9.13,13.09,17.61c-1.25,8.48-9.13,14.33-17.61,13.09
		c-8.48-1.25-14.34-9.13-13.09-17.61C262.96,464.42,270.85,458.57,279.32,459.81z"/>
	<path class="st10" d="M273.58,485.54c2.03,0.23,4.24-0.52,5.45-2.17c0.54-0.74,0.87-1.68,0.7-2.58c-0.27-1.43-1.67-2.34-3.02-2.87
		c-1.35-0.53-2.84-0.88-3.89-1.88c-1.33-1.26-2-3.31-4.18-2.92c-1.63,0.3-3.13,2.99-3.2,4.51
		C265.26,481.49,270.12,485.15,273.58,485.54z"/>
	<path class="st10" d="M271.13,304.39c20.6-5.31,40.52,2.86,44.49,18.26c3.97,15.4-9.5,32.2-30.1,37.51
		c-20.6,5.31-40.52-2.86-44.49-18.27C237.06,326.5,250.54,309.71,271.13,304.39z"/>
	<path class="st8" d="M259.85,329.67c8.3-2.14,16.76,2.85,18.9,11.15c2.14,8.3-2.85,16.76-11.15,18.9
		c-8.3,2.14-16.76-2.85-18.9-11.15C246.56,340.27,251.55,331.81,259.85,329.67z"/>
	<path class="st10" d="M264.54,355.6c1.96-0.58,3.7-2.12,4.18-4.12c0.21-0.89,0.15-1.89-0.35-2.65c-0.8-1.21-2.45-1.51-3.9-1.48
		c-1.45,0.04-2.96,0.29-4.32-0.22c-1.72-0.64-3.13-2.28-4.98-1.06c-1.39,0.91-1.73,3.97-1.2,5.4
		C255.31,355.1,261.2,356.59,264.54,355.6z"/>
	<path class="st6" d="M152.64,523.23c-6.03,1.72-12.25,3.53-17.18,7.86c-4.92,4.33-8.21,11.91-6.17,18.58
		c2.47,8.06,10.96,11.09,18.37,12.48c77.39,14.6,154.84-27.05,233.33-26.72c-2.81-9.71-11.54-15.39-19.9-19.14
		c-14.72-6.6-30.38-10.04-45.97-13.16c-23.63-4.72-57.47-18.05-79.93-6.72C209.37,509.46,180.07,515.4,152.64,523.23z"/>
	<path class="st2" d="M600.74,246.35c1.49,12.57,6.29,25.92,17.24,32.28c3.62,2.1,7.69,3.3,11.79,4.15
		c8.59,1.78,18.53,1.76,24.96-4.21c5.07-4.7,6.76-12.04,7.05-18.95c0.75-17.81-6.37-35.81-19.1-48.28
		c-2.88-2.82,3.26-8.59-0.39-10.3c-10.43-4.89-41.39,10.54-41.39,10.54C599.55,214.91,599.47,235.61,600.74,246.35z"/>
	<path class="st1" d="M614.76,212.99c0.18-28.4,1.66-57.07,9.13-84.47c5.75-21.08,23.18-55.26,32.32-62.54
		c14.6-11.62,60.85,48.83,51.84,53.52c-21.43,11.16-17.13,30.5-16.18,46.31c0.95,15.81,11.03,30.48,19.66,43.76
		c8.63,13.28,18.64,25.73,25.76,39.88c4.92,9.77,8.16,22.27,1.68,31.08c-3.13,4.26-8.01,6.82-12.82,9.01
		c-16.11,7.32-33.42,11.99-51.03,13.75c-17.97,1.8-46.37,0.23-51.52-21.17C618.21,259.76,614.61,236.06,614.76,212.99z"/>
	<path class="st2" d="M947.07,231.74c13.75-2.25,33.95-0.91,33.95-0.91c12.62,12.7,24,32.45,11.58,42.8
		c-11.57,9.65-29.74,9.11-45.88,8.67c-39.19-1.06-78.47,2.08-116.66,9.33c-3.38,0.64-19.32,15.01-22.57,13.92
		c-18.13-6.1,34.86-42.43,61.12-53.1C893.42,242.37,920.16,236.15,947.07,231.74z"/>
	<g>
		<path class="st1" d="M1084.49,166.06c5.11-4.61,11.75-7.93,18.62-7.63c6.87,0.3,13.76,4.89,15.35,11.59
			c2.6-3.56,8.25-1.11,11.52,1.84c12.86,11.57,21.49,27.73,23.95,44.84c0.94,6.53,0.99,13.3-0.89,19.63
			c-5.29,17.8-26.5,28.29-44.49,23.7c-19.72-5.03-29.91-22.78-33.01-41.5C1072.4,199.59,1068.18,180.78,1084.49,166.06z"/>
		<path class="st5" d="M1107.67,197.63c-4.32-11.62-2.01-25.64,6.18-34.94c0.1-0.12,3.55,3.85,3.85,4.34
			c1.07,1.78,1.26,2.41,0.14,3.98c-1.92,2.68-3.93,5.22-5.53,8.12C1109.19,184.76,1107.19,191.14,1107.67,197.63z"/>
	</g>
	<path class="st1" d="M1075.28,211.29c16.2-5.73,36.26-9.7,48.89,1.95c9.49,8.75,30.02,29.1,20,37.24
		c-13.53,11-25.96,21.11-34.35,30.92c-27.41,32.02-54.82,64.05-82.23,96.08c-14.99,17.51-55.54,85.79-102.15,115.54
		c-7.69,4.91-37.28,7.39-46.07,9.84c-11.71,3.26-24.25,2.35-36.05-0.53c-35.69-8.68-66.3-35.99-78.98-70.47
		c-12.68-34.48-7.06-75.11,14.5-104.86c12.18-16.8,29.26-29.85,48.4-37.78c18.87-7.82,89.04-38.11,159.53-51.96
		C1011.23,232.45,1051.75,219.61,1075.28,211.29z"/>
	<path class="st7" d="M131.75,532.06c-5.68,8.79-2.96,21.11,3.95,28.95c6.92,7.84,17.1,12,27.19,14.74
		c28.5,7.72,58.65,6.14,87.99,2.87c5.97-0.67,12.05-1.43,17.5-3.95c5.45-2.52,10.27-7.12,11.55-12.99
		c1.68-7.7-3.22-15.66-9.89-19.86c-6.67-4.19-14.76-5.37-22.61-6.11c-17.89-1.67-35.95-1.52-53.81,0.45
		c-8.29,0.92-16.69,2.22-24.93,0.92c-9.41-1.49-12.06-7.18-19.13-11.56C143.33,521.67,135.71,525.93,131.75,532.06z"/>
	<path class="st6" d="M901.21,352.48c-10.39-5.61-22.38-8.98-34.05-7.2c-18.24,2.78-32.12,17.09-46.8,28.28
		c-21.76,16.58-47.9,27.35-75.02,30.92c-13.79,1.81-28.08,1.87-40.98,7.07c-24.47,9.88-38.89,38.07-36.16,64.32
		c2.16,20.78,13.06,37.13,27.61,50.55c43.78-1.58,87.56-3.16,131.34-4.74c24.34-0.88,48.96-1.8,72.38-8.49
		c3.66-1.04,7.28-2.26,10.86-3.63c-0.33-5.84-1.82-11.56-4.71-16.83c-3.98-7.26-10.2-13.18-13.63-20.71
		c-6.04-13.28-2.28-29.03,4.19-42.1c6.47-13.07,15.52-24.86,20.74-38.48c2.35-6.13,3.89-12.88,2.31-19.26
		C917.11,363.26,909.29,356.84,901.21,352.48z"/>
</g>
</svg>
